<svg width="27" height="15" viewBox="0 0 27 15" fill="none" xmlns="http://www.w3.org/2000/svg">
<path d="M16.6173 11.51C17.5843 11.201 18.8224 13.55 20.1404 14.449C21.1297 15.13 21.8873 14.983 21.8873 14.983L25.4003 14.933C25.4003 14.933 27.2362 14.821 26.3683 13.379C26.2965 13.259 25.8595 12.31 23.7536 10.357C21.5515 8.31404 21.8499 8.64504 24.5011 5.11304C26.1165 2.96004 26.7628 1.64504 26.5605 1.08504C26.3663 0.546037 25.1798 0.686037 25.1798 0.686037L21.2217 0.713037C20.8363 0.714037 20.5096 0.832037 20.3609 1.22804C20.3579 1.23204 19.7328 2.89404 18.8993 4.30704C17.1382 7.29604 16.4352 7.45504 16.1439 7.26804C15.4753 6.83504 15.6442 5.53104 15.6442 4.60404C15.6442 1.70704 16.0812 0.499037 14.7885 0.187037C14.3566 0.0830374 14.041 0.0150374 12.9394 0.00503741C11.5314 -0.0159626 10.3358 0.00503743 9.65806 0.334037C9.20793 0.557037 8.86301 1.04604 9.07239 1.07404C9.33539 1.10904 9.9251 1.23404 10.2407 1.66004C10.6463 2.21204 10.6342 3.44904 10.6342 3.44904C10.6342 3.44904 10.8658 6.86004 10.088 7.28304C9.55387 7.57304 8.82356 6.98104 7.25267 4.26704C6.45054 2.87904 5.84464 1.34504 5.84464 1.34504C5.84464 1.34504 5.7273 1.06004 5.51488 0.904037C5.262 0.719037 4.90797 0.660037 4.90797 0.660037L1.15119 0.684037C1.15119 0.684037 0.586767 0.700037 0.379405 0.946037C0.195309 1.16404 0.364233 1.61404 0.364233 1.61404C0.364233 1.61404 3.30674 8.49504 6.63868 11.961C9.69346 15.143 13.165 14.932 13.165 14.932H14.7379C14.7379 14.932 15.2123 14.878 15.4551 14.62C15.6817 14.38 15.6715 13.929 15.6715 13.929C15.6715 13.929 15.6402 11.82 16.6173 11.51Z" fill="white"/>
</svg>
